<svg xmlns="http://www.w3.org/2000/svg" viewBox="0 0 60 60"><defs><style>.cls-1,.cls-2{fill:#87d300;}.cls-1{opacity:0.09;isolation:isolate;}</style></defs><title>Diversity</title><g id="Layer_2" data-name="Layer 2"><g id="Layer_1-2" data-name="Layer 1"><g id="partner"><rect id="Rectangle_7" data-name="Rectangle 7" class="cls-1" width="60" height="60" rx="7"/><path class="cls-2" d="M24.222,36.32a1.576,1.576,0,0,0,1.383-.719,4.252,4.252,0,0,0,.652-1.8c.017-.093.035-.185.055-.287h4.731c.015.06.033.115.042.171a2.339,2.339,0,0,0,2.359,2.107c.475.02.951,0,1.427.012a.588.588,0,0,1,.3.091q3.42,2.309,6.833,4.628a2.121,2.121,0,0,1,.567,2.966,2.157,2.157,0,0,1-2.938.586l-.3-.193A2.09,2.09,0,0,1,38.117,45.8a2.154,2.154,0,0,1-2.239-.2,2.144,2.144,0,0,1-1.449,2.022,2.458,2.458,0,0,1-2.441-.655,2.14,2.14,0,0,1-1.109,1.888,2.113,2.113,0,0,1-2.172-.049,1.873,1.873,0,0,1-3.293-1.015,2,2,0,0,1-1.779-.293,2.053,2.053,0,0,1-.861-1.589,2.088,2.088,0,0,1-1.786-.369,2.047,2.047,0,0,1-.8-1.628,2.081,2.081,0,0,1-2.335-1.422c-.305-.817-.058-1.488.76-2.293a3.64,3.64,0,0,0-1.244-1.708l-.3.44a1.4,1.4,0,0,1-1.686.584,2.281,2.281,0,0,1-.624-.312c-1.484-1.068-2.96-2.148-4.439-3.224-.023-.017-.043-.038-.081-.071l.509-.744c.207.141.408.27.6.411q1.923,1.4,3.845,2.809a1.929,1.929,0,0,0,.374.226.544.544,0,0,0,.767-.236c.7-1.048,1.387-2.1,2.09-3.143a.287.287,0,0,0-.024-.411,14.447,14.447,0,0,1-3.277-8.207,14.6,14.6,0,0,1,4.253-11.627,14.353,14.353,0,0,1,9.739-4.421,14.382,14.382,0,0,1,8.844,2.274A14.532,14.532,0,0,1,44.7,23a14.517,14.517,0,0,1-3.139,11.847.252.252,0,0,0-.017.357c.715,1.062,1.421,2.13,2.132,3.2a.473.473,0,0,0,.656.219,2.188,2.188,0,0,0,.5-.27q2.081-1.5,4.154-3.018c.076-.055.156-.105.257-.173l.515.75c-.209.147-.412.284-.61.429q-1.914,1.4-3.825,2.8a1.876,1.876,0,0,1-1.538.412,1.263,1.263,0,0,1-.826-.571q-1.85-2.8-3.7-5.606-.675-1.026-1.332-2.066a.311.311,0,0,0-.3-.163q-4.807.006-9.617.007a.756.756,0,0,0-.35.093q-1.653.912-3.295,1.841a.329.329,0,0,0-.157.222c-.01.973-.006,1.947-.005,2.92A.721.721,0,0,0,24.222,36.32Zm5.714,8.068c.092.061.159.1.224.151l2.788,1.988A1.229,1.229,0,0,0,34.873,46a1.2,1.2,0,0,0-.461-1.414c-.727-.492-1.462-.971-2.194-1.456l-1.1-.735.551-.808c.1.063.16.1.22.143L35.775,44.4c.242.165.481.335.726.494a1.217,1.217,0,1,0,1.351-2.024q-2.2-1.512-4.4-3.02c-.13-.089-.257-.182-.392-.277l.515-.746c.093.061.166.108.238.157q3.151,2.155,6.305,4.311a1.194,1.194,0,0,0,1.713-.345,1.209,1.209,0,0,0-.347-1.667q-3.3-2.239-6.6-4.467a.594.594,0,0,0-.3-.091c-.395-.012-.792.013-1.185-.014a3.277,3.277,0,0,1-3.066-2.143.27.27,0,0,0-.2-.142c-.966-.009-1.932,0-2.9-.008-.125,0-.17.043-.209.161a8.412,8.412,0,0,1-.419,1.128,2.549,2.549,0,0,1-3.1,1.421.262.262,0,0,1-.227-.3q.012-1.987,0-3.974a.32.32,0,0,1,.187-.328c.733-.4,1.46-.807,2.188-1.214.064-.035.125-.078.188-.117a.438.438,0,0,0-.232-.048c-1.083,0-2.166,0-3.25,0a.362.362,0,0,0-.352.192q-1.717,2.679-3.447,5.35c-.221.341-.445.68-.653,1a11,11,0,0,1,.9.972,12.649,12.649,0,0,1,.643,1.117.216.216,0,0,0,.167.083,2.118,2.118,0,0,1,2.009,1.16c.044.089.085.179.132.277a2.049,2.049,0,0,1,3.167,1.08,1.967,1.967,0,0,1,2.608.14,2.055,2.055,0,0,1,.094,3.01.8.8,0,0,0,.086.024,1.805,1.805,0,0,1,1.518,2.321c-.038.15.016.193.13.242a1.225,1.225,0,0,0,1.481-.429,1.2,1.2,0,0,0-.131-1.532,5.543,5.543,0,0,0-.546-.468c-.243-.187-.5-.358-.761-.547ZM22.175,24.975A26.239,26.239,0,0,1,23.333,17.5a15.107,15.107,0,0,1-3.11-2.1A14.145,14.145,0,0,0,16,24.975Zm21.825,0a14.134,14.134,0,0,0-4.231-9.564,14.791,14.791,0,0,1-2.995,2.034c-.126.064-.092.14-.062.233a25.837,25.837,0,0,1,1.1,7.087c0,.07.009.139.014.21ZM29.525,19.114c-.92-.136-1.826-.22-2.708-.412s-1.752-.5-2.651-.756A25.028,25.028,0,0,0,23.1,24.973h6.428Zm.946,0v5.854H36.9a25.043,25.043,0,0,0-1.072-7.022c-.892.26-1.749.561-2.63.753S31.4,18.978,30.471,19.114Zm7,11.111c.188,0,.413.008.637,0a.333.333,0,0,1,.337.178q1.128,1.764,2.271,3.519c.058.09.118.177.193.291a14.02,14.02,0,0,0,3.078-8.294H37.869ZM22.126,25.917H16.01A14.017,14.017,0,0,0,19.079,34.2c.057-.084.091-.131.122-.179.761-1.188,1.526-2.374,2.28-3.566a.409.409,0,0,1,.421-.229c.221.017.444,0,.625,0Zm7.4.007H23.1c0,.07,0,.121,0,.171a27.848,27.848,0,0,0,.373,3.93c.029.174.1.2.256.2q2.789-.006,5.576,0c.07,0,.141-.006.217-.01Zm.946-.007v4.29a.506.506,0,0,0,.081.016q2.887,0,5.774.005c.139,0,.171-.063.184-.18.112-1,.239-2,.336-3.008.036-.367.006-.74.006-1.123Zm5.016-8.9a.5.5,0,0,0-.01-.091,12.547,12.547,0,0,0-1.852-3.4,5.633,5.633,0,0,0-2.209-1.791c-.3-.124-.615-.2-.941-.3v6.688A14.016,14.016,0,0,0,35.487,17.021Zm-11.013-.035a13.243,13.243,0,0,0,5.047,1.121V11.482c-.063.007-.106.01-.148.018a4.251,4.251,0,0,0-1.984.978,9,9,0,0,0-2.229,2.986C24.913,15.959,24.7,16.473,24.474,16.986Zm-3.592-2.211a13.567,13.567,0,0,0,2.762,1.842,12.535,12.535,0,0,1,2.992-4.743A14.229,14.229,0,0,0,20.882,14.775ZM33.356,11.88A9.339,9.339,0,0,1,35.1,14.065c.46.819.865,1.668,1.3,2.512a10.787,10.787,0,0,0,2.65-1.8A13.1,13.1,0,0,0,33.356,11.88Zm-7.14,30.992a1.131,1.131,0,0,0-.948.434c-.468.617-.935,1.236-1.381,1.869a1.124,1.124,0,0,0,.249,1.547,1.141,1.141,0,0,0,1.563-.176c.492-.625.962-1.27,1.42-1.921a1.044,1.044,0,0,0,.043-1.145A1.1,1.1,0,0,0,26.216,42.872Zm-5.1.983a1.136,1.136,0,0,0,.748,1.12,1.167,1.167,0,0,0,1.3-.379q.354-.46.692-.933A1.144,1.144,0,1,0,22,42.324c-.207.283-.389.585-.612.854A1.14,1.14,0,0,0,21.112,43.855ZM19.849,43a1.055,1.055,0,0,0,1.084-1.083,1.212,1.212,0,0,0-1.206-1.154,1.1,1.1,0,0,0-1.061,1.1A1.176,1.176,0,0,0,19.849,43Zm7.407,5.542a1.245,1.245,0,0,0,1.131-1.068.884.884,0,0,0-.406-.887.876.876,0,0,0-.974-.044,1.4,1.4,0,0,0-.615.773A.923.923,0,0,0,27.256,48.541Z"/><path class="cls-2" d="M44.927,36.953l-.742.538-.535-.742.74-.539Z"/><path class="cls-2" d="M16.408,36.722l-.568.721-.719-.568.565-.716Z"/></g></g></g></svg>