<svg xmlns="http://www.w3.org/2000/svg" viewBox="0 0 60 60"><defs><style>.cls-1,.cls-2{fill:#87d300;}.cls-1{opacity:0.09;isolation:isolate;}</style></defs><title>partner</title><g id="Layer_2" data-name="Layer 2"><g id="Layer_1-2" data-name="Layer 1"><g id="partner"><rect id="Rectangle_7" data-name="Rectangle 7" class="cls-1" width="60" height="60" rx="7"/><path class="cls-2" d="M25.428,47.2V38.164h1.266V48.569a20.545,20.545,0,0,1-2.727-.164,3.1,3.1,0,0,1-2.423-2.984q-.038-3.449.008-6.9a12.161,12.161,0,0,1,.258-1.683H21.3q-2.394,0-4.788,0A4.548,4.548,0,0,0,11.8,41.58a24.4,24.4,0,0,0,.094,3.074,2.992,2.992,0,0,0,2.5,2.467v-7h1.283v7.1h5.833v1.313h-.415q-2.961,0-5.924,0a4.53,4.53,0,0,1-4.67-4.694,26.691,26.691,0,0,1,.078-3.24,5.707,5.707,0,0,1,5.5-5.027c2.052-.061,4.109.025,6.163.031a.548.548,0,0,0,.386-.193,5.809,5.809,0,0,1,4.912-2.459q2.435,0,4.869,0A5.856,5.856,0,0,1,37.324,35.4a.648.648,0,0,0,.462.193c2.175.013,4.359-.111,6.524.04a5.661,5.661,0,0,1,5.121,5.4,22.909,22.909,0,0,1-.075,3.724,4.407,4.407,0,0,1-4.288,3.766c-2.137.026-4.274.007-6.411.007-.065,0-.131-.009-.219-.016V47.246h5.818V40.107h1.288V47.12a3.031,3.031,0,0,0,2.517-2.461,13.718,13.718,0,0,0,.086-2.223,10.347,10.347,0,0,0-.127-2.056,4.42,4.42,0,0,0-4.178-3.519c-1.837-.064-3.678-.015-5.517-.014a.813.813,0,0,0-.159.026c.483,2.864.2,5.731.225,8.586a3.15,3.15,0,0,1-3.086,3.06c-.675.019-1.35,0-2.055,0V38.163H34.5V47.17a2.016,2.016,0,0,0,2.612-2.088q0-3.063,0-6.127a4.555,4.555,0,0,0-4.708-4.711q-2.433-.006-4.868,0a4.55,4.55,0,0,0-4.707,4.71c0,1.975.054,3.952-.019,5.924A2.114,2.114,0,0,0,25.428,47.2Z"/><path class="cls-2" d="M45.572,30.977V29.744c.545-.219.633-.349.634-.938,0-1.163,0-2.326,0-3.489,0-.577-.234-.809-.816-.812-.988,0-1.975-.01-2.962,0-.269,0-.4-.05-.472-.346a11.879,11.879,0,0,0-1.464-3.5c-.048-.078-.087-.163-.146-.273.773-.767,1.541-1.527,2.307-2.291.489-.488.489-.773,0-1.261q-1.216-1.222-2.437-2.441c-.445-.443-.758-.441-1.208.01-.773.774-1.541,1.553-2.247,2.266-1.045-.456-2.019-.881-2.994-1.3a2.76,2.76,0,0,0-.307-.1c-.891-.267-.891-.267-.891-1.216,0-.8,0-1.6,0-2.394,0-.551-.238-.786-.8-.789q-1.806-.007-3.611,0c-.55,0-.781.245-.784.8,0,1-.008,2,.005,3,0,.252-.048.378-.325.443a12.34,12.34,0,0,0-3.8,1.642c-.385-.4-.763-.8-1.149-1.2-.417-.425-.835-.849-1.265-1.26a.658.658,0,0,0-1.006,0q-1.343,1.324-2.668,2.669A.642.642,0,0,0,17.194,18c.7.712,1.415,1.416,2.122,2.125.094.094.183.193.29.307a13.1,13.1,0,0,0-1.661,3.862c-.024.1-.23.2-.353.2-.988.017-1.975.008-2.963.01-.682,0-.887.211-.887.9q0,1.685,0,3.368c0,.623.076.739.632.976v1.2a1.843,1.843,0,0,1-1.919-1.788q-.045-2.068,0-4.138a1.926,1.926,0,0,1,1.967-1.822c.73-.013,1.461.005,2.191-.011a.448.448,0,0,0,.341-.176c.174-.394.292-.813.458-1.211s.364-.78.562-1.2c-.544-.542-1.091-1.084-1.634-1.629a1.959,1.959,0,0,1-.007-3.029q1.232-1.236,2.468-2.467a2,2,0,0,1,3.072.011c.47.467.946.929,1.4,1.411a.358.358,0,0,0,.488.08c.676-.3,1.36-.594,2.052-.86a.335.335,0,0,0,.267-.374c-.011-.73-.01-1.46,0-2.191A1.94,1.94,0,0,1,28.05,9.574q1.927-.024,3.855,0a1.939,1.939,0,0,1,1.963,2c.007.717.008,1.434,0,2.15a.358.358,0,0,0,.275.411c.706.266,1.393.584,2.1.857a.462.462,0,0,0,.4-.07c.512-.482,1-.99,1.5-1.484a1.982,1.982,0,0,1,2.956,0q1.3,1.281,2.582,2.583a1.933,1.933,0,0,1,.008,2.884c-.558.57-1.134,1.122-1.677,1.657.342.866.66,1.693,1,2.51.033.078.217.13.332.132.689.012,1.379,0,2.069.007A1.959,1.959,0,0,1,47.5,25.282c0,1.257.01,2.516,0,3.773A1.9,1.9,0,0,1,45.572,30.977Z"/><path class="cls-2" d="M39.084,27.084h-1.3a7.789,7.789,0,0,0-3.02-6.117A7.518,7.518,0,0,0,29.7,19.32a7.838,7.838,0,0,0-7.55,7.754H20.871a8.848,8.848,0,0,1,4.055-7.5,8.656,8.656,0,0,1,9.554-.333A8.909,8.909,0,0,1,39.084,27.084Z"/><path class="cls-2" d="M29.959,32.293a3.894,3.894,0,1,1,3.909-3.875A3.891,3.891,0,0,1,29.959,32.293Zm0-1.3a2.6,2.6,0,1,0-2.578-2.617A2.586,2.586,0,0,0,29.956,30.994Z"/><path class="cls-2" d="M18.911,34.89a3.894,3.894,0,1,1,3.92-3.865A3.891,3.891,0,0,1,18.911,34.89Zm.017-1.3a2.6,2.6,0,1,0-2.589-2.608A2.589,2.589,0,0,0,18.928,33.592Z"/><path class="cls-2" d="M40.991,34.89a3.894,3.894,0,1,1,3.915-3.869A3.891,3.891,0,0,1,40.991,34.89Zm.02-1.3a2.6,2.6,0,1,0-2.6-2.6A2.588,2.588,0,0,0,41.011,33.592Z"/><path class="cls-2" d="M32.55,47.257v1.25H27.41v-1.25Z"/></g></g></g></svg>