<svg xmlns="http://www.w3.org/2000/svg" viewBox="0 0 60 60"><defs><style>.cls-1,.cls-2{fill:#87d300;}.cls-1{opacity:0.09;isolation:isolate;}</style></defs><title>Revenue</title><g id="Layer_2" data-name="Layer 2"><g id="Layer_1-2" data-name="Layer 1"><g id="partner"><rect id="Rectangle_7" data-name="Rectangle 7" class="cls-1" width="60" height="60" rx="7"/><path class="cls-2" d="M20.034,47.1a3.36,3.36,0,0,1-2.9,2.556,19.111,19.111,0,0,1-3.994-.031,3.335,3.335,0,0,1-2.854-3.315q-.033-5.043,0-10.087A3.484,3.484,0,0,1,13.7,32.813c.837-.02,1.674-.006,2.511-.006a3.588,3.588,0,0,1,3.92,3.119c.126-.111.228-.2.326-.289A8.469,8.469,0,0,1,23.4,33.746a3.751,3.751,0,0,1,3.521.452,8.163,8.163,0,0,0,3.406,1.461,5.317,5.317,0,0,0,2.042-.148,21.494,21.494,0,0,1,2.934-.493,1.684,1.684,0,0,1,1.752.866,2.326,2.326,0,0,1-.1,2.391,1.35,1.35,0,0,1-.509.4c-.713.4-1.434.783-2.228,1.213a8.267,8.267,0,0,0,3.426.544A8.577,8.577,0,0,0,41.93,39q1.457-.95,2.935-1.863a4.475,4.475,0,0,1,2.431-.806,2.083,2.083,0,0,1,1.963,1.19,5.014,5.014,0,0,1,.472,1.75,1.379,1.379,0,0,1-.476.971c-2.281,1.963-4.588,3.9-6.9,5.827a16.158,16.158,0,0,1-8.427,3.578,19.7,19.7,0,0,1-8.45-1.014C23.69,48.084,21.874,47.615,20.034,47.1Zm.113-1.435c2.383.665,4.732,1.3,7.069,1.978a16.316,16.316,0,0,0,5.652.681,14.336,14.336,0,0,0,8.106-2.959c2.447-1.922,4.776-3.994,7.151-6.006.1-.085.223-.248.2-.351-.157-.867-.523-1.535-1.554-1.193a8.375,8.375,0,0,0-1.565.781c-1.174.694-2.294,1.486-3.5,2.114a9.292,9.292,0,0,1-8.794.128.606.606,0,0,0-.472.018c-.692.354-1.369.736-2.053,1.107-1.148.622-2.293,1.248-3.446,1.861a.706.706,0,0,1-1.027-.248.726.726,0,0,1,.37-.991c.051-.03.1-.056.155-.084,3.016-1.638,6.029-3.283,9.054-4.906a.674.674,0,0,0,.393-.86.743.743,0,0,0-.631-.306c-.9.118-1.779.334-2.675.459a10.7,10.7,0,0,1-2.217.17,8,8,0,0,1-4.051-1.581,2.708,2.708,0,0,0-2.948-.2,9.414,9.414,0,0,0-3.116,2.674.541.541,0,0,0-.1.321C20.145,40.72,20.147,43.172,20.147,45.666Zm-1.411-4.387c0-1.629.007-3.259,0-4.888a2.1,2.1,0,0,0-2.168-2.172q-1.342-.012-2.686,0a2.108,2.108,0,0,0-2.192,2.192q-.009,4.866,0,9.733a2.1,2.1,0,0,0,2.167,2.173c.866.008,1.732,0,2.6,0a2.126,2.126,0,0,0,2.283-2.282C18.739,44.45,18.736,42.865,18.736,41.279Z"/><path class="cls-2" d="M37.067,15.885a2.239,2.239,0,0,1-.67-.013c-.241-.088-.553-.221-.642-.42a.832.832,0,0,1,.117-.748c1.388-1.436,2.806-2.843,4.227-4.247a.649.649,0,0,1,.987,0c1.421,1.4,2.838,2.811,4.226,4.246a.83.83,0,0,1,.118.748c-.09.2-.4.333-.642.421a2.239,2.239,0,0,1-.67.013V33.159c0,.868-.19,1.058-1.058,1.058q-2.535,0-5.068,0c-.69,0-.924-.234-.924-.925q0-8.415,0-16.831Zm1.127-1.457a4.355,4.355,0,0,1,.272,1.026c.017,4.2.011,8.394.011,12.591v.5h4.231v-.563q0-6.251,0-12.5c0-.395.036-.751.332-.906l-2.5-2.489Zm4.482,18.36V30.022H38.5v2.766Z"/><path class="cls-2" d="M32.837,21.525v4.253q0,3.084,0,6.169c0,.6-.254.857-.858.858q-2.643.006-5.287,0c-.662,0-.9-.241-.9-.9q0-4.89,0-9.781v-.6a2.044,2.044,0,0,1-.648-.013,1.223,1.223,0,0,1-.673-.441.824.824,0,0,1,.138-.744c1.379-1.424,2.786-2.821,4.2-4.215a.667.667,0,0,1,1.022,0c1.41,1.393,2.817,2.791,4.2,4.215a.825.825,0,0,1,.14.744,1.235,1.235,0,0,1-.672.443A2.023,2.023,0,0,1,32.837,21.525ZM31.4,31.377V24.382H27.22v6.995Zm.312-11.3L29.3,17.7l-2.472,2.454c.738.818.154,1.859.423,2.75h4.175c0-.606-.032-1.18.012-1.748A6.418,6.418,0,0,1,31.708,20.078Z"/><path class="cls-2" d="M14.506,24.345a2.206,2.206,0,0,1-.67-.013c-.242-.087-.553-.22-.642-.42a.824.824,0,0,1,.117-.747c1.388-1.436,2.805-2.844,4.226-4.247a.649.649,0,0,1,.987,0c1.422,1.4,2.839,2.811,4.227,4.246a.833.833,0,0,1,.118.748c-.09.2-.4.333-.642.421a2.211,2.211,0,0,1-.671.013v.487q0,2.818,0,5.639c0,.691-.235.924-.925.925q-2.6,0-5.2,0c-.691,0-.925-.234-.925-.924q0-2.8,0-5.6Zm1.051-1.383c.74.82.136,1.87.418,2.76h4.171c0-.606.01-1.178,0-1.749-.009-.4.011-.784.329-.944l-2.5-2.489Zm.391,4.224v2.766h4.175V27.186Z"/><path class="cls-2" d="M27.79,12.117c-.316.346-.562.635-.829.9Q25,14.988,23.037,16.945c-.616.615-.813.627-1.5.12-1.129-.838-2.262-1.671-3.418-2.525-.406.434-.8.848-1.185,1.265Q14.945,17.95,12.952,20.1a1.95,1.95,0,0,1-.354.327.639.639,0,0,1-.846-.088.648.648,0,0,1-.13-.842,1.649,1.649,0,0,1,.25-.306q2.727-2.937,5.455-5.872c.5-.538.751-.561,1.355-.117q1.578,1.161,3.151,2.327c.117.086.237.167.345.243l3.948-3.976c-.478.024-.93.044-1.382.069-.279.015-.557.054-.835.051a.658.658,0,0,1-.694-.646.672.672,0,0,1,.64-.75c1.361-.1,2.723-.182,4.086-.265a.737.737,0,0,1,.767.477c.41.908.828,1.813,1.226,2.727a.681.681,0,0,1-.347.955.689.689,0,0,1-.937-.4C28.374,13.428,28.117,12.838,27.79,12.117Z"/><path class="cls-2" d="M15.2,41.27a2.113,2.113,0,1,1-2.1,2.143A2.119,2.119,0,0,1,15.2,41.27Zm.023,1.41a.7.7,0,1,0,.687.706A.711.711,0,0,0,15.226,42.68Z"/></g></g></g></svg>